<svg width="398" height="117" viewBox="0 0 398 117" fill="none" xmlns="http://www.w3.org/2000/svg">
<path d="M370 0C385.464 4.4454e-06 398 12.536 398 28V89C398 104.464 385.464 117 370 117H28C12.536 117 4.02687e-08 104.464 0 89V28C0 12.536 12.536 0 28 0H370ZM161.455 41.9141C158.214 41.9141 155.211 42.5503 152.447 43.8232C149.71 45.0963 147.332 46.8339 145.312 49.0352C143.293 51.2365 141.712 53.7829 140.569 56.6738C139.453 59.5649 138.896 62.6554 138.896 65.9443C138.896 69.4452 139.626 72.5882 141.087 75.373C142.575 78.1579 144.648 80.3596 147.305 81.9775C149.988 83.5954 153.137 84.4042 156.751 84.4043C159.993 84.4043 162.784 83.7943 165.122 82.5742C166.258 81.9883 167.36 81.2861 168.428 80.4678L164.284 100H175.883L188 43.1074H177.836L176.567 49.0029C175.975 48.0892 175.255 47.2511 174.408 46.4893C172.814 45.0305 170.901 43.9031 168.669 43.1074C166.437 42.3118 164.032 41.9141 161.455 41.9141ZM79.2129 26L74.6641 47.4629C73.4468 46.0993 72.0004 44.9792 70.3252 44.1025C67.5884 42.6438 64.4259 41.9141 60.8389 41.9141C57.5972 41.9141 54.581 42.5637 51.791 43.8633C49.0277 45.1363 46.6096 46.9135 44.5371 49.1943C42.4645 51.4488 40.8565 54.0356 39.7139 56.9531C38.5714 59.8706 38 62.9739 38 66.2627C38 69.9493 38.7704 73.1588 40.3115 75.8906C41.8792 78.5959 44.0318 80.704 46.7686 82.2158C49.5319 83.7276 52.7339 84.4833 56.374 84.4834C59.9612 84.4834 63.0042 83.7412 65.502 82.2559C66.9206 81.4211 68.1881 80.4438 69.3047 79.3242L68.4512 83.29H78.6152L90.8115 26H79.2129ZM100.623 26L88.3477 83.29H99.9854L104.649 61.4883C105.075 59.5521 105.765 57.9209 106.722 56.5947C107.678 55.242 108.834 54.2209 110.189 53.5312C111.571 52.8151 113.072 52.457 114.693 52.457C117.43 52.457 119.423 53.2129 120.672 54.7246C121.947 56.2364 122.306 58.2923 121.748 60.8916L116.926 83.29H128.563L134.064 57.5889C134.649 54.5654 134.423 51.8732 133.387 49.5127C132.377 47.1523 130.729 45.296 128.444 43.9434C126.186 42.5907 123.515 41.9141 120.433 41.9141C117.776 41.9141 115.225 42.471 112.78 43.585C111.008 44.3927 109.353 45.4444 107.818 46.7402L112.262 26H100.623ZM223.326 44.8643C220.548 44.8643 217.973 45.321 215.603 46.2344C213.256 47.1477 211.208 48.4455 209.46 50.1279C207.712 51.7864 206.359 53.7455 205.401 56.0049C204.467 58.2402 204 60.7157 204 63.4316C204 66.989 204.803 70.1741 206.407 72.9863C208.012 75.7745 210.227 77.9736 213.053 79.584C215.878 81.1943 219.111 81.9999 222.751 82C225.05 82 227.254 81.6158 229.361 80.8467C231.469 80.0535 233.421 78.9837 235.217 77.6377L232.127 73.5635C231.193 74.5489 229.924 75.3778 228.319 76.0508C226.715 76.7238 224.99 77.0605 223.146 77.0605C218.956 77.0605 215.639 75.8466 213.196 73.4189C210.754 70.9914 209.532 67.6386 209.532 63.3604C209.532 60.5241 210.095 58.0962 211.221 56.0771C212.346 54.0341 213.926 52.4834 215.962 51.4258C217.997 50.3441 220.405 49.8037 223.183 49.8037C224.835 49.8037 226.38 50.0437 227.816 50.5244C229.277 50.9811 230.534 51.6546 231.588 52.5439L234.462 48.3252C232.881 47.1234 231.169 46.2462 229.325 45.6934C227.505 45.1405 225.505 44.8643 223.326 44.8643ZM269.755 44.5029C267.743 44.5029 265.624 44.7923 263.396 45.3691C261.169 45.946 259.002 46.9795 256.895 48.4697L258.618 52.832C260.342 51.5581 262.103 50.6446 263.899 50.0918C265.719 49.539 267.539 49.2627 269.359 49.2627C271.467 49.2627 273.251 49.6116 274.712 50.3086C276.196 51.0056 277.322 51.9909 278.088 53.2646C278.854 54.5386 279.238 56.0651 279.238 57.8438V60.2305C275.223 59.8576 271.762 59.8194 268.856 60.1152C265.552 60.4517 262.869 61.1364 260.81 62.1699C258.774 63.1794 257.277 64.4539 256.319 65.9922C255.386 67.5063 254.919 69.1765 254.919 71.0029C254.919 73.2143 255.41 75.1501 256.392 76.8086C257.373 78.4429 258.775 79.7166 260.595 80.6299C262.415 81.5431 264.57 82 267.061 82C269.695 82 272.101 81.5311 274.28 80.5938C276.46 79.6323 278.172 78.2621 279.417 76.4834V80.918H284.446V57.8076C284.446 54.8992 283.883 52.4593 282.758 50.4883C281.632 48.5174 279.98 47.0271 277.801 46.0176C275.622 45.0082 272.94 44.503 269.755 44.5029ZM305.691 44.5029C303.177 44.5029 300.95 44.9486 299.01 45.8379C297.094 46.7272 295.585 47.9524 294.483 49.5146C293.406 51.053 292.867 52.8083 292.867 54.7793C292.867 57.5913 293.789 59.7906 295.633 61.377C297.501 62.9633 300.519 64.261 304.686 65.2705C308.11 66.1358 310.457 66.9898 311.727 67.8311C312.995 68.6723 313.63 69.946 313.63 71.6523C313.63 73.455 312.876 74.8616 311.367 75.8711C309.882 76.8806 307.823 77.3847 305.188 77.3848C303.177 77.3848 301.201 77.0248 299.261 76.3037C297.321 75.5586 295.633 74.5249 294.196 73.2031L291.718 77.457C293.25 78.803 295.214 79.897 297.608 80.7383C300.003 81.5796 302.518 82 305.152 82C307.882 82 310.265 81.5553 312.301 80.666C314.336 79.7767 315.917 78.5385 317.043 76.9521C318.168 75.3659 318.73 73.4911 318.73 71.3281C318.73 68.5159 317.797 66.3159 315.929 64.7295C314.085 63.1193 311.067 61.8214 306.877 60.8359C303.74 60.0908 301.453 59.2973 300.016 58.4561C298.603 57.6148 297.896 56.3171 297.896 54.5625C297.897 52.856 298.615 51.522 300.052 50.5605C301.489 49.5752 303.344 49.0821 305.619 49.082C306.936 49.082 308.218 49.2504 309.463 49.5869C310.732 49.8994 311.918 50.3561 313.02 50.957C314.121 51.5338 315.078 52.2309 315.893 53.0479L318.228 48.7217C316.623 47.3517 314.743 46.306 312.588 45.585C310.457 44.864 308.158 44.503 305.691 44.5029ZM241.787 29V80.918H247.104V29H241.787ZM327.071 29V80.918H332.388V60.5117C332.388 58.3965 332.843 56.5454 333.753 54.959C334.687 53.3488 335.944 52.0992 337.524 51.21C339.105 50.3206 340.877 49.876 342.841 49.876C345.858 49.9 348.253 50.7772 350.025 52.5078C351.797 54.2144 352.684 56.4498 352.684 59.2139V80.918H358V57.627C358 55.584 357.485 53.5894 356.455 51.6426C355.425 49.6716 353.869 48.0483 351.785 46.7744C349.702 45.5007 347.115 44.8643 344.026 44.8643C341.656 44.8643 339.345 45.3927 337.094 46.4502C335.316 47.2853 333.747 48.5254 332.388 50.1699V29H327.071ZM271.191 64.0811C273.455 63.9604 276.137 64.067 279.238 64.4004V68.0469C279.238 69.8496 278.746 71.4477 277.765 72.8418C276.783 74.2359 275.454 75.3298 273.777 76.123C272.101 76.9162 270.209 77.3125 268.102 77.3125C265.587 77.3124 263.624 76.7478 262.211 75.6182C260.798 74.4885 260.092 72.9144 260.092 70.8955C260.092 69.7178 260.451 68.6359 261.169 67.6504C261.911 66.6649 263.097 65.8593 264.726 65.2344C266.354 64.6095 268.509 64.2253 271.191 64.0811ZM61.6357 51.9795C63.5754 51.9795 65.2759 52.3773 66.7373 53.1729C68.2253 53.942 69.3813 55.0433 70.2051 56.4756C71.0552 57.9077 71.4804 59.6049 71.4805 61.5674C71.4805 63.9014 70.9621 66.05 69.9258 68.0127C68.916 69.9489 67.4946 71.5009 65.6611 72.668C63.8544 73.8348 61.7554 74.4179 59.3643 74.418C57.4245 74.418 55.7232 74.0338 54.2617 73.2646C52.8003 72.4955 51.6577 71.3941 50.834 69.9619C50.0105 68.5299 49.5987 66.846 49.5986 64.9102C49.5986 62.5497 50.0902 60.401 51.0732 58.4648C52.0829 56.5022 53.491 54.9365 55.2979 53.7695C57.1313 52.576 59.2443 51.9795 61.6357 51.9795ZM162.491 52.0195C164.431 52.0196 166.131 52.4038 167.593 53.1729C169.081 53.942 170.237 55.0433 171.061 56.4756C171.911 57.9078 172.336 59.5923 172.336 61.5283C172.336 63.8092 171.831 65.9309 170.821 67.8936C169.838 69.8562 168.43 71.4344 166.597 72.6279C164.79 73.795 162.663 74.3789 160.219 74.3789C158.279 74.3789 156.579 73.9937 155.117 73.2246C153.656 72.4554 152.5 71.3676 151.649 69.9619C150.826 68.5563 150.414 66.8852 150.414 64.9492C150.414 62.6684 150.906 60.5466 151.889 58.584C152.898 56.6214 154.307 55.0431 156.113 53.8496C157.92 52.6295 160.047 52.0195 162.491 52.0195Z" fill="black"/>
</svg>
